<svg width="52" height="53" viewBox="0 0 52 53" fill="none" xmlns="http://www.w3.org/2000/svg">
<path d="M25.8828 18.0957C24.1161 21.9306 22.4892 26.2111 22.0371 30.431" stroke="white" stroke-width="2.08" stroke-linecap="round" stroke-linejoin="round"/>
<path d="M26.084 18.1953C26.0931 21.2337 26.2049 24.2707 26.2655 27.3081C26.2898 28.5267 26.3032 29.7457 26.322 30.9646" stroke="white" stroke-width="2.08" stroke-linecap="round" stroke-linejoin="round"/>
<path d="M25.9453 41.3457C25.7436 43.4836 25.3847 45.601 24.9395 47.7005" stroke="white" stroke-width="2.08" stroke-linecap="round" stroke-linejoin="round"/>
<path d="M34.1615 18.1953C32.641 27.983 34.2199 38.364 33.8814 48.1551" stroke="white" stroke-width="2.08" stroke-linecap="round" stroke-linejoin="round"/>
<path d="M34.1621 18.1953C35.9415 21.5454 36.6027 28.1878 36.9195 29.8776" stroke="white" stroke-width="2.08" stroke-linecap="round" stroke-linejoin="round"/>
<path d="M14.9981 39.3566C14.2386 30.2316 32.1697 30.9741 28.9297 40.1546" stroke="white" stroke-width="2.08" stroke-linecap="round" stroke-linejoin="round"/>
<path d="M15.8691 39.8631C20.1564 39.7454 24.5826 40.1533 28.9298 40.1533" stroke="white" stroke-width="2.08" stroke-linecap="round" stroke-linejoin="round"/>
<path d="M23.4886 31.1565C22.2183 30.7232 21.7113 30.6751 21.0215 31.8823" stroke="white" stroke-width="2.08" stroke-linecap="round" stroke-linejoin="round"/>
<path d="M28.212 6.27323C30.5001 4.09393 32.4322 5.18047 34.3072 7.05106C41.5058 14.2332 20.7408 19.5629 27.4324 6.62688" stroke="white" stroke-width="2.08" stroke-linecap="round" stroke-linejoin="round"/>
</svg>
