<svg width="252" height="253" viewBox="0 0 252 253" fill="none" xmlns="http://www.w3.org/2000/svg">
<path d="M190.969 86.311C177.039 84.1501 167 66.5523 155.18 62.3019C153.771 61.7955 146.203 68.31 144.774 69.2588C124.346 82.8132 102.261 93.5087 81.7228 106.955C77.1364 109.958 54.0553 118.87 52.3821 124.283C52.0844 125.249 52.028 126.634 52.3821 126.703C57.661 127.738 63.1094 132.024 67.5717 135.004C70.4281 136.911 95.5853 156.328 97.6536 154.749C119.589 138.001 166.872 105.45 192.635 88.7793" stroke="white" stroke-opacity="0.9" stroke-width="6" stroke-linecap="round" stroke-linejoin="round"/>
<path d="M196.756 101.567C165.346 116.96 123.004 162.556 98.0292 176.019C96.9103 176.622 88.1722 169.367 86.7351 168.592C77.7633 163.754 69.3642 157.276 61.6138 150.438" stroke="#898989" stroke-width="6" stroke-linecap="round" stroke-linejoin="round"/>
<path d="M199.71 116.465C191.657 112.856 106.727 193.627 98.5165 190.079C90.3069 186.531 73.3328 172.959 63.2012 165.155" stroke="#898989" stroke-width="6" stroke-linecap="round" stroke-linejoin="round"/>
<path d="M118.97 98.4291C138.393 75.2256 154.403 121.417 121.676 116.605C114.931 115.614 111.208 100.867 116.471 97.0816" stroke="white" stroke-opacity="0.9" stroke-width="6" stroke-linecap="round" stroke-linejoin="round"/>
<path d="M75.478 121.99C78.9682 126.686 81.475 123.468 87.9653 118.625" stroke="white" stroke-opacity="0.9" stroke-width="6" stroke-linecap="round" stroke-linejoin="round"/>
<path d="M165.791 91.4726C169.158 89.3274 166.415 91.104 166.415 86.9863" stroke="white" stroke-opacity="0.9" stroke-width="6" stroke-linecap="round" stroke-linejoin="round"/>
</svg>
