<svg width="32" height="32" viewBox="0 0 32 32" fill="none" xmlns="http://www.w3.org/2000/svg">
<path opacity="0.470215" d="M20.5285 7.13477C22.4076 8.02837 23.3381 9.64301 24.0991 11.4214C24.7583 12.9617 25.2699 14.6527 25.143 16.3571C25.1433 17.0997 24.9837 17.7929 24.8308 18.5241C23.8304 23.3069 19.4875 25.4872 17.1612 25.719C14.7466 25.9597 12.4713 25.5651 10.4116 24.1681C9.85438 23.7903 8.25638 22.4425 7.73005 20.9569C7.13303 19.2719 6.4611 17.4585 6.99556 15.5854C7.21437 14.8191 7.26271 13.9514 7.90716 13.3048" stroke="white" stroke-opacity="0.9" stroke-width="2" stroke-linecap="round" stroke-linejoin="round"/>
<path d="M15.7527 19.4477C14.6951 18.1558 13.6148 16.7277 12.5117 15.1635C11.4085 13.5993 10.4218 12.1004 9.55143 10.6669" stroke="white" stroke-opacity="0.9" stroke-width="2" stroke-linecap="round" stroke-linejoin="round"/>
<path d="M16.1937 19.4147C17.2338 18.0312 18.0818 16.8094 18.7376 15.7495C19.3934 14.6895 20.1401 13.334 20.9777 11.6828" stroke="white" stroke-opacity="0.9" stroke-width="2" stroke-linecap="round" stroke-linejoin="round"/>
</svg>
