<svg width="52" height="52" viewBox="0 0 52 52" fill="none" xmlns="http://www.w3.org/2000/svg">
<path d="M20.149 7.55822C21.0294 6.86142 22.4751 6.58962 23.6273 6.5145C26.1848 6.34786 29.2283 7.62467 29.962 9.95931C31.2424 14.0326 27.0069 19.4783 21.9525 17.1957C19.5584 16.1145 18.7109 14.2438 18.77 11.9301" stroke="white" stroke-width="2" stroke-linecap="round" stroke-linejoin="round"/>
<path d="M19.7165 19.5303C19.3666 19.6718 19.6012 19.5847 19.258 20.5779C18.3843 24.5119 19.5853 31.4415 19.6337 31.6135" stroke="white" stroke-width="2" stroke-linecap="round" stroke-linejoin="round"/>
<path d="M30.1928 32.5887C29.992 32.5751 29.792 32.558 29.6003 32.513C29.463 32.4807 29.3307 32.4375 29.1988 32.3938C28.9344 32.3268 24.2717 32.1132 23.8149 32.1169C23.3097 32.1215 21.1886 32.1444 20.6854 32.1169C20.3139 32.0967 19.9842 32.014 19.7192 31.8269" stroke="white" stroke-width="2" stroke-linecap="round" stroke-linejoin="round"/>
<path d="M30.0024 32.7791C30.2777 39.9843 30.0024 44.3751 30.0024 45.0833C30.0024 45.5016 31.3398 45.6515 32.0971 45.4473" stroke="white" stroke-width="2" stroke-linecap="round" stroke-linejoin="round"/>
<path d="M32.0971 26.1035C31.8361 26.2183 30.8691 25.3716 30.5958 25.42C30.3014 25.4715 29.9999 25.499 29.7014 25.53C29.3295 25.5684 28.9615 25.5922 28.5895 25.5457C27.6669 25.4288 25.4438 25.0614 24.5639 24.7645C23.6296 24.4487 19.8574 21.0226 19.7192 20.7822" stroke="white" stroke-width="2" stroke-linecap="round" stroke-linejoin="round"/>
<path opacity="0.503384" d="M40.6929 20.2898C40.4685 20.4701 37.5821 25.401 37.4221 25.6342C37.3515 25.7363 37.277 25.8362 37.2042 25.9365C37.0751 26.1143 36.9519 26.3371 36.776 26.4695C36.3955 26.7557 29.8435 26.658 29.2671 26.4695" stroke="white" stroke-width="2" stroke-linecap="round" stroke-linejoin="round"/>
<path opacity="0.503384" d="M13.686 32.8489C13.9597 32.6032 14.3499 32.4492 14.7619 32.4236C14.8771 32.4283 24.5668 32.6919 25.0426 32.7862C25.4913 32.8756 26.022 32.989 26.379 33.231" stroke="white" stroke-width="2" stroke-linecap="round" stroke-linejoin="round"/>
<path opacity="0.503384" d="M22.8801 45.5001C22.6805 45.4604 22.5066 45.3879 22.3591 45.2836C22.2747 45.236 22.1904 45.1882 22.1056 45.1409C21.9634 45.0629 21.8215 44.9853 21.6793 44.9071C21.2342 44.6625 20.7459 44.4569 20.237 44.2887C19.9273 44.1998 19.6134 44.1209 19.2864 44.0723C19.1974 44.0694 19.1094 44.0693 19.0203 44.0723C18.9189 44.0888 18.8206 44.1093 18.7221 44.1338C18.435 44.2342 18.1662 44.3537 17.9065 44.4874C17.5808 44.6807 16.9493 45.0763 16.6401 45.2836" stroke="white" stroke-width="2" stroke-linecap="round" stroke-linejoin="round"/>
<path opacity="0.503384" d="M14.1531 30.2954C13.0002 27.56 11.6536 22.4013 11.6572 19.3462" stroke="white" stroke-width="2" stroke-linecap="round" stroke-linejoin="round"/>
<path opacity="0.503384" d="M19.6715 32.208L19.6294 41.7301" stroke="white" stroke-width="2" stroke-linecap="round" stroke-linejoin="round"/>
</svg>
