<svg width="52" height="52" viewBox="0 0 52 52" fill="none" xmlns="http://www.w3.org/2000/svg">
<path d="M14.2869 11.0192C15.0975 10.1702 15.7131 9.74709 16.8539 9.40247C21.6705 7.9474 22.4691 16.1136 18.8295 18.3124C14.141 21.1447 10.6675 14.8013 13.9684 11.8924" stroke="white" stroke-width="2" stroke-linecap="round" stroke-linejoin="round"/>
<path d="M34.7591 13.1073C35.9912 12.0954 38.1187 11.5931 39.7373 12.2409C44.9626 14.3319 42.1051 21.3684 36.8683 20.6699C33.3386 20.1991 33.533 13.7331 36.2779 12.6346" stroke="white" stroke-width="2" stroke-linecap="round" stroke-linejoin="round"/>
<path d="M24.6221 24.3248C25.7645 23.4176 27.7374 22.9673 29.2381 23.548C34.0835 25.4227 31.4338 31.7314 26.5779 31.105C23.3049 30.6831 23.4851 24.8858 26.0304 23.9011" stroke="white" stroke-width="2" stroke-linecap="round" stroke-linejoin="round"/>
<path d="M11.3101 35.4338C11.4954 35.0727 11.3101 27.43 13.8451 22.75C14.3433 25.1767 14.6511 33.176 14.2351 34.58M21.4075 30.6797C20.6138 29.7732 19.5153 24.0621 19.4351 23.27C19.0668 25.09 18.5511 31.681 18.6551 34.125" stroke="white" stroke-width="2" stroke-linecap="round" stroke-linejoin="round"/>
<path d="M42.2842 36.6038C40.7019 36.8542 39.6565 37.008 39.1482 37.0654C36.5099 37.3633 35.6053 37.3461 35.3286 37.3461C34.7934 37.3461 38.2412 22.8346 39.1482 22.8346C39.7528 22.8346 42.2842 31.785 46.0848 37.0654" stroke="white" stroke-width="2" stroke-linecap="round" stroke-linejoin="round"/>
<path d="M14.1736 34.4741C13.9166 36.191 13.7881 38.2374 13.7881 40.6134C13.7881 42.9893 13.9166 45.2308 14.1736 47.3379L12.6665 47.6253" stroke="white" stroke-width="2" stroke-linecap="round" stroke-linejoin="round"/>
<path d="M18.5898 34.45C18.9798 35.7459 19.1748 37.486 19.1748 39.6701C19.1748 41.8544 18.9798 44.1876 18.5898 46.67H19.7598" stroke="white" stroke-width="2" stroke-linecap="round" stroke-linejoin="round"/>
<path d="M20.8047 30.5441C21.4869 31.796 21.9795 32.4774 22.2828 32.5884C22.5859 32.6995 23.3973 32.9249 24.7169 33.265M30.0791 32.9548C31.324 32.766 32.136 32.5051 32.515 32.1721C32.894 31.8391 33.3108 31.5 33.7657 31.1548" stroke="white" stroke-width="2" stroke-linecap="round" stroke-linejoin="round"/>
<path d="M24.7478 33.5671L25.6275 39.0353L24.7478 45.2067L22.4885 41.6555L21.4077 41.2907" stroke="white" stroke-width="2" stroke-linecap="round" stroke-linejoin="round"/>
<path d="M29.922 32.8114L28.4907 39.0917L29.922 44.4509L32.3621 40.9995L33.6148 40.6165" stroke="white" stroke-width="2" stroke-linecap="round" stroke-linejoin="round"/>
<path d="M37.8345 37.3463V48.0311L36.6289 48.23" stroke="white" stroke-width="2" stroke-linecap="round" stroke-linejoin="round"/>
<path d="M41.1504 36.8928V48.23H42.356" stroke="white" stroke-width="2" stroke-linecap="round" stroke-linejoin="round"/>
<path d="M39.0401 22.8346C35.9982 28.1389 34.1395 31.0614 33.4639 31.6021" stroke="white" stroke-width="2" stroke-linecap="round" stroke-linejoin="round"/>
</svg>
