<svg width="53" height="53" viewBox="0 0 53 53" fill="none" xmlns="http://www.w3.org/2000/svg">
<path d="M9.36328 31.0999C19.4217 25.6202 13.7876 22.7351 22.9656 28.9752C23.1416 29.0945 25.7275 30.371 25.6306 30.5592C25.4848 30.8421 11.0708 31.5233 10.1985 31.4861" stroke="white" stroke-width="2.10448" stroke-linecap="round" stroke-linejoin="round"/>
<path d="M28.3184 30.1474C30.9513 29.3251 34.4421 23.9414 35.1946 23.9414C36.6159 23.9414 38.9751 27.0445 42.4295 28.969C42.5186 29.0187 43.5819 29.6561 43.5819 29.7152C43.5819 30.0639 38.4342 29.4609 38.1362 29.4403C35.1724 29.2312 32.3765 29.6159 29.4707 29.9901" stroke="white" stroke-width="2.10448" stroke-linecap="round" stroke-linejoin="round"/>
<path d="M21.1055 26.5654C32.0626 17.4438 22.4806 15.5454 32.1757 27.1253" stroke="white" stroke-width="2.10448" stroke-linecap="round" stroke-linejoin="round"/>
<path d="M12.0645 32.3281C12.1299 34.1745 12.2624 36.0432 12.367 37.8633" stroke="white" stroke-width="2.10448" stroke-linecap="round" stroke-linejoin="round"/>
<path d="M24.1742 31.4883C24.1195 33.4272 24.4446 36.4877 24.412 37.8621" stroke="white" stroke-width="2.10448" stroke-linecap="round" stroke-linejoin="round"/>
<path d="M30.3134 30.9844C30.1211 33.2596 30.3788 35.6003 30.1836 37.8614" stroke="white" stroke-width="2.10448" stroke-linecap="round" stroke-linejoin="round"/>
<path d="M42.1236 31.4883C41.9998 33.392 42.3731 35.3119 42.1236 37.1912" stroke="white" stroke-width="2.10448" stroke-linecap="round" stroke-linejoin="round"/>
<path opacity="0.503384" d="M20.9615 31.8242C20.9489 33.945 21.1454 36.0989 21.0589 38.198" stroke="white" stroke-width="2.10448" stroke-linecap="round" stroke-linejoin="round"/>
<path opacity="0.503384" d="M18.0986 32.3281C18.1441 34.2832 18.0073 36.2585 18.0986 38.1987" stroke="white" stroke-width="2.10448" stroke-linecap="round" stroke-linejoin="round"/>
<path opacity="0.503384" d="M15.8466 32.3281C15.8574 34.2219 15.7661 36.1987 15.9762 38.031" stroke="white" stroke-width="2.10448" stroke-linecap="round" stroke-linejoin="round"/>
<path opacity="0.503384" d="M33.43 30.8164C33.3543 33.0278 33.5275 35.7345 33.4192 37.6933" stroke="white" stroke-width="2.10448" stroke-linecap="round" stroke-linejoin="round"/>
<path opacity="0.503384" d="M36.5898 31.1523C36.6044 33.1654 36.6004 35.1795 36.6547 37.1906" stroke="white" stroke-width="2.10448" stroke-linecap="round" stroke-linejoin="round"/>
<path opacity="0.503384" d="M39.4746 30.9844C39.4189 32.9364 39.6181 35.5899 39.6473 37.1905" stroke="white" stroke-width="2.10448" stroke-linecap="round" stroke-linejoin="round"/>
<path d="M25.1328 31.4876C26.7613 31.3613 28.3466 31.0325 29.9971 30.9844" stroke="white" stroke-width="2.10448" stroke-linecap="round" stroke-linejoin="round"/>
<path opacity="0.503384" d="M9.91077 26.2871C6.97191 28.355 7.82026 27.3829 10.0362 28.2999" stroke="white" stroke-width="2.10448" stroke-linecap="round" stroke-linejoin="round"/>
<path opacity="0.503384" d="M10.3383 26.625C10.1357 28.2022 10.2329 29.7828 10.5107 31.3215" stroke="white" stroke-width="2.10448" stroke-linecap="round" stroke-linejoin="round"/>
<path opacity="0.503384" d="M17.2482 23.7629C17.2318 25.0615 18.3532 18.7272 17.7159 19.8892C17.3994 20.4659 20.1336 21.2233 19.5009 20.9348C18.7239 20.5807 18.0728 21.3382 17.7159 21.7097" stroke="white" stroke-width="2.10448" stroke-linecap="round" stroke-linejoin="round"/>
<path opacity="0.503384" d="M27.3095 18.4047C27.312 17.7949 27.1664 17.2152 27.1461 16.6065C27.1232 15.9206 26.3982 14.5469 27.1461 14.5469C28.0073 14.5469 30.1622 14.8491 29.5531 15.4084C29.2548 15.6822 27.9427 15.227 27.2278 16.1572" stroke="white" stroke-width="2.10448" stroke-linecap="round" stroke-linejoin="round"/>
<path opacity="0.503384" d="M36.0787 23.2701C36.0626 22.4855 35.9922 21.708 35.9922 20.9219" stroke="white" stroke-width="2.10448" stroke-linecap="round" stroke-linejoin="round"/>
<path opacity="0.503384" d="M36.1815 20.7539C38.958 21.6941 38.4077 20.7388 36.0352 21.5925" stroke="white" stroke-width="2.10448" stroke-linecap="round" stroke-linejoin="round"/>
<path opacity="0.503384" d="M43.8145 26.625C43.7447 27.4707 43.8362 28.3065 43.8795 29.141" stroke="white" stroke-width="2.10448" stroke-linecap="round" stroke-linejoin="round"/>
<path opacity="0.503384" d="M43.9674 26.5117C45.0223 26.7707 44.5871 26.8834 43.75 27.0732" stroke="white" stroke-width="2.10448" stroke-linecap="round" stroke-linejoin="round"/>
</svg>
