<svg width="380" height="380" viewBox="0 0 380 380" fill="none" xmlns="http://www.w3.org/2000/svg">
<path d="M144.9 128.06C224.353 68.8462 323.139 209.468 231.27 265.833C143.215 319.853 90.454 217.889 134.042 141.838" stroke="white" stroke-opacity="0.9" stroke-width="16.8596" stroke-linecap="round" stroke-linejoin="round"/>
<path d="M246.197 119.113C263.368 94.2779 288.412 150.953 271.306 154.64" stroke="white" stroke-opacity="0.9" stroke-width="16.8596" stroke-linecap="round" stroke-linejoin="round"/>
<path d="M137.838 114.933C123.469 92.0855 92.9767 142.25 105.588 153.69" stroke="white" stroke-opacity="0.9" stroke-width="16.8596" stroke-linecap="round" stroke-linejoin="round"/>
<path d="M208.316 95C195.939 96.1922 183.663 95 171.315 95" stroke="white" stroke-opacity="0.9" stroke-width="16.8596" stroke-linecap="round" stroke-linejoin="round"/>
<path d="M188.935 145.14C194.095 235.508 177.119 212.229 218.006 187.21" stroke="white" stroke-opacity="0.9" stroke-width="16.8596" stroke-linecap="round" stroke-linejoin="round"/>
<path d="M181.887 161.29C189.856 141.371 188.699 141.617 197.744 158.586" stroke="white" stroke-opacity="0.9" stroke-width="16.8596" stroke-linecap="round" stroke-linejoin="round"/>
<path d="M212.721 184.588C222.432 180.123 221.585 181.396 218.742 192.64" stroke="white" stroke-opacity="0.9" stroke-width="16.8596" stroke-linecap="round" stroke-linejoin="round"/>
<path d="M131.672 262.94C125.023 268.8 120.934 278.326 116.695 285.74" stroke="white" stroke-opacity="0.9" stroke-width="16.8596" stroke-linecap="round" stroke-linejoin="round"/>
<path d="M244.436 262.94C250.571 269.76 254.584 277.068 257.65 285.74" stroke="white" stroke-opacity="0.9" stroke-width="16.8596" stroke-linecap="round" stroke-linejoin="round"/>
</svg>
