<svg width="52" height="52" viewBox="0 0 52 52" fill="none" xmlns="http://www.w3.org/2000/svg">
<path d="M19.8285 17.5241C30.701 9.42114 44.2191 28.6642 31.6475 36.3772C19.5978 43.7695 12.378 29.8165 18.3427 19.4095" stroke="white" stroke-linecap="round" stroke-linejoin="round"/>
<path d="M33.6899 16.2998C36.0396 12.9013 39.4668 20.6569 37.1258 21.1614" stroke="white" stroke-linecap="round" stroke-linejoin="round"/>
<path d="M18.8622 15.7273C16.8959 12.6008 12.7232 19.4655 14.4489 21.0309" stroke="white" stroke-linecap="round" stroke-linejoin="round"/>
<path d="M28.5066 13C26.813 13.1631 25.133 13 23.4434 13" stroke="white" stroke-linecap="round" stroke-linejoin="round"/>
<path d="M25.8545 19.8613C26.5607 32.2274 24.2377 29.0419 29.8328 25.6182" stroke="white" stroke-linecap="round" stroke-linejoin="round"/>
<path d="M24.8896 22.0712C25.9802 19.3455 25.8219 19.3792 27.0596 21.7012" stroke="white" stroke-linecap="round" stroke-linejoin="round"/>
<path d="M29.1094 25.2599C30.4382 24.6488 30.3224 24.8231 29.9333 26.3617" stroke="white" stroke-linecap="round" stroke-linejoin="round"/>
<path d="M18.0182 35.9814C17.1083 36.7833 16.5488 38.0868 15.9688 39.1014" stroke="white" stroke-linecap="round" stroke-linejoin="round"/>
<path d="M33.4492 35.9814C34.2888 36.9147 34.838 37.9147 35.2575 39.1014" stroke="white" stroke-linecap="round" stroke-linejoin="round"/>
</svg>
