<svg width="52" height="52" viewBox="0 0 52 52" fill="none" xmlns="http://www.w3.org/2000/svg">
<path d="M11.0483 40.0104C10.9607 36.0715 11.0666 33.0334 11.3661 30.8961C14.311 26.2313 15.9109 23.8557 16.1657 23.7692C16.7143 23.5832 19.6772 30.2319 20.1503 30.2319C26.0189 30.2319 34.5024 30.0053 41.1266 29.2386" stroke="white" stroke-width="2" stroke-linecap="round" stroke-linejoin="round"/>
<path d="M10.5298 31.4937C11.6967 28.9702 13.8571 20.5974 14.462 20.2539C15.7378 19.5291 21.3311 19.6951 22.6671 19.7667C24.0278 19.8398 36.2652 19.3377 36.4647 19.6084C37.3067 20.7512 37.9226 23.112 38.5023 24.4561C39.7058 27.2467 40.7747 28.156 41.5998 30.1729" stroke="white" stroke-width="2" stroke-linecap="round" stroke-linejoin="round"/>
<path d="M16.8384 24.8158C21.995 19.2624 19.6741 16.4304 22.9016 21.5843C24.5119 24.1564 26.2556 27.1701 27.7879 29.7192" stroke="white" stroke-width="2" stroke-linecap="round" stroke-linejoin="round"/>
<path d="M23.2939 40.1679C23.5552 38.2958 23.67 35.9757 23.6381 33.2076C26.2027 33.055 27.5637 33.055 27.7211 33.2076C28.6193 34.0806 27.8601 38.4931 27.9843 39.9454" stroke="white" stroke-width="2" stroke-linecap="round" stroke-linejoin="round"/>
<path d="M17.7695 37.7674C16.5133 37.7674 14.3412 38.0651 13.8076 37.9202C13.5066 37.8384 13.8076 37.2405 13.8076 36.9005C13.8076 35.9834 13.4 33.82 14.08 33.077C14.4695 32.6523 18.2223 32.3833 18.4233 32.8221C18.7629 33.564 18.3765 35.5437 18.3765 36.3911" stroke="white" stroke-width="2" stroke-linecap="round" stroke-linejoin="round"/>
<path d="M37.0573 37.9858C33.8416 37.6098 31.0873 39.8187 31.0873 35.9276C31.0873 35.416 30.8778 33.2187 31.2797 32.7892C31.6519 32.3914 37.6578 32.3242 37.8755 32.635C38.5224 33.5561 37.7314 36.5187 37.7314 37.7286" stroke="white" stroke-width="2" stroke-linecap="round" stroke-linejoin="round"/>
<path d="M40.4829 30.2319C40.4224 32.9658 40.4234 39.1872 40.5489 40.1681" stroke="white" stroke-width="2" stroke-linecap="round" stroke-linejoin="round"/>
<path d="M20.1548 27.4455C19.9985 19.0419 24.6125 28.3971 21.0051 27.7704" stroke="white" stroke-width="2" stroke-linecap="round" stroke-linejoin="round"/>
<path d="M35.5314 18.7477C35.6342 18.3799 35.5782 17.9496 35.3632 17.4569H33.2836C33.0002 17.8859 32.8851 18.4086 32.9384 19.0251" stroke="white" stroke-width="2" stroke-linecap="round" stroke-linejoin="round"/>
<path opacity="0.344424" d="M36.4984 15.4067C31.0723 14.387 35.6606 12.733 36.1301 11.8015C37.0878 9.90026 33.5883 9.79355 37.815 6.89001" stroke="white" stroke-width="2" stroke-linecap="round" stroke-linejoin="round"/>
</svg>
