<svg width="52" height="52" viewBox="0 0 52 52" fill="none" xmlns="http://www.w3.org/2000/svg">
<path opacity="0.495257" d="M10.7269 17.5254C11.919 18.6006 17.1325 20.2256 17.6044 21.5703C17.6363 21.6609 13.0487 31.2843 12.4506 31.384C9.94819 31.8006 7.41287 29.8119 4.93994 29.107" stroke="white" stroke-width="2" stroke-linecap="round" stroke-linejoin="round"/>
<path opacity="0.495257" d="M45.0507 16.9C42.3446 17.6802 43.6421 17.2729 41.1538 18.1099C39.8373 18.5532 37.1689 19.3293 36.0579 20.0762C35.6039 20.3819 36.2494 21.1098 36.3576 21.4379C36.8961 23.0674 38.4235 32.398 38.9057 32.4794C41.4077 32.9003 44.6865 30.8371 46.9991 30.0589" stroke="white" stroke-width="2" stroke-linecap="round" stroke-linejoin="round"/>
<path d="M34.8685 20.8157C32.7211 20.8157 27.2575 19.3929 25.3518 20.8157C24.2601 21.6314 22.4374 26.4581 24.4488 26.9583C25.8751 27.3135 27.1476 24.6533 28.3615 24.4116C29.4242 24.2001 34.9046 27.2543 35.585 28.1573" stroke="white" stroke-width="2" stroke-linecap="round" stroke-linejoin="round"/>
<path d="M35.5852 28.6265C35.6146 30.4168 33.3817 32.9208 32.9916 33.3049C32.336 33.9524 31.4062 34.646 28.2368 35.0369" stroke="white" stroke-width="2" stroke-linecap="round" stroke-linejoin="round"/>
<path d="M18.4936 29.7045C19.6228 29.4398 20.0945 29.9897 19.9086 31.3541C19.0283 33.3417 16.314 32.8306 17.6562 30.8082" stroke="white" stroke-width="2" stroke-linecap="round" stroke-linejoin="round"/>
<path d="M22.7935 30.4499C23.8512 30.2528 23.9838 31.0909 23.1915 32.9644C22.4536 34.8592 20.5495 33.9964 20.9379 31.9743" stroke="white" stroke-width="2" stroke-linecap="round" stroke-linejoin="round"/>
<path d="M24.9561 31.9854C25.9964 31.9854 26.5165 32.7071 26.5165 34.1506C26.3954 35.6686 23.7021 36.2224 23.7021 33.5769" stroke="white" stroke-width="2" stroke-linecap="round" stroke-linejoin="round"/>
<path d="M24.015 23.0173C22.9312 23.0106 21.726 22.6614 20.3403 22.6863C18.9545 22.7114 18.1189 22.9197 16.8228 23.1542" stroke="white" stroke-width="2" stroke-linecap="round" stroke-linejoin="round"/>
<path d="M32.8901 29.9C33.4238 30.2648 34.0629 30.55 34.1901 30.55" stroke="white" stroke-width="2" stroke-linecap="round" stroke-linejoin="round"/>
<path d="M31.46 32.11C32.0741 32.6312 32.491 32.8918 32.7108 32.8918" stroke="white" stroke-width="2" stroke-linecap="round" stroke-linejoin="round"/>
<path d="M29.3799 33.8C29.994 34.3212 30.4109 34.5819 30.6307 34.5819" stroke="white" stroke-width="2" stroke-linecap="round" stroke-linejoin="round"/>
<path fill-rule="evenodd" clip-rule="evenodd" d="M16.6663 30.8155C14.9255 30.5027 13.815 30.3464 13.3352 30.3464C12.8552 30.3464 13.9656 30.5027 16.6663 30.8155Z" stroke="white" stroke-width="2" stroke-linecap="round" stroke-linejoin="round"/>
</svg>
