<svg width="53" height="53" viewBox="0 0 53 53" fill="none" xmlns="http://www.w3.org/2000/svg">
<path d="M37.25 22.0078C37.25 23.6054 37.0859 25.7185 37.0859 26.8726C37.0859 28.0268 37.25 33.8086 37.25 34.8874C37.25 35.9662 37.25 37.8773 37.25 38.7298" stroke="white" stroke-width="2.10448" stroke-linecap="round" stroke-linejoin="round"/>
<path d="M15.7734 38.5657C16.441 34.4724 15.8826 26.9169 15.8826 25.8458C15.8826 24.7748 15.7734 22.6513 15.7734 21.8438" stroke="white" stroke-width="2.10448" stroke-linecap="round" stroke-linejoin="round"/>
<path d="M40.6739 25.6143C40.9075 25.5922 38.7784 23.516 36.0259 21.1982C34.6673 20.0543 32.8951 18.39 31.5073 17.2803C29.704 15.8382 27.9564 14.6817 26.2647 13.8105C25.6553 13.8105 20.3674 18.0458 19.972 18.3618C18.8499 19.258 14.1791 23.4505 13.5603 23.9702C13.0103 24.4319 12.4775 24.8983 11.9384 25.3628C11.9019 25.3943 11.8769 25.4287 11.8379 25.4711" stroke="white" stroke-width="2.10448" stroke-linecap="round" stroke-linejoin="round"/>
<path d="M20.873 38.6471C20.9491 37.3774 20.9491 36.1751 20.873 35.0403C20.7591 33.3382 20.6706 31.4336 21.0142 31.4336C21.3577 31.4336 21.5841 31.4336 21.8323 31.4336C22.0805 31.4336 23.5254 31.4336 23.7574 31.4336C23.9895 31.4336 24.4006 31.4336 24.5839 31.4336C24.7673 31.4336 24.7673 31.6238 24.7673 32.107C24.7673 32.5901 24.9984 38.0108 24.7673 38.6471" stroke="white" stroke-width="2.10448" stroke-linecap="round" stroke-linejoin="round"/>
<path d="M28.8254 27.2665C29.5852 27.3178 30.3277 27.3036 31.0531 27.224C32.141 27.1047 33.3147 26.9564 33.3147 27.3162C33.3147 27.6759 33.3147 27.9127 33.3147 28.1726C33.3147 28.4323 33.3147 29.9448 33.3147 30.1878C33.3147 30.4307 33.3147 30.8609 33.3147 31.053C33.3147 31.2449 33.1931 31.2449 32.8843 31.2449C32.5756 31.2449 29.1111 31.4867 28.7044 31.2449C28.2978 31.003 28.4109 29.0767 28.4109 28.8603C28.4109 28.644 28.4109 28.4092 28.4109 28.2461" stroke="white" stroke-width="2.10448" stroke-linecap="round" stroke-linejoin="round"/>
</svg>
