<svg width="52" height="52" viewBox="0 0 52 52" fill="none" xmlns="http://www.w3.org/2000/svg">
<path opacity="0.502139" d="M9.90002 24.7813C11.6487 24.7813 14.677 24.0429 15.7812 24.7813C16.0753 24.978 15.9003 25.9234 15.9003 26.2176C15.9003 27.8046 17.0298 37.282 16.4976 37.9488C15.5999 39.0733 12.1165 39.4913 10.7663 39.9838" stroke="white" stroke-opacity="0.9" stroke-width="2" stroke-linecap="round" stroke-linejoin="round"/>
<path d="M17.1257 25.2621C19.0813 24.5637 20.7871 24.3723 22.5663 24.1296" stroke="white" stroke-opacity="0.9" stroke-width="2" stroke-linecap="round" stroke-linejoin="round"/>
<path d="M22.8824 24.1297C23.5211 23.9658 23.9555 20.7146 24.4746 18.3081C25.1739 15.066 24.9196 12.1659 27.2081 12.2689C29.8145 12.3862 29.021 21.284 31.213 21.0194C33.6632 20.7237 35.4253 20.1957 39.5439 21.0194C43.6625 21.8432 40.8441 24.0765 40.8441 24.2187C40.8441 24.8941 42.2603 24.4602 42.1083 26.7817C42.0265 28.0323 41.6614 28.6914 40.5895 29.1155C40.1846 29.2759 41.4477 30.7042 41.3114 31.5246C41.3114 32.7866 40.1922 33.1619 40.1922 33.7265C40.1922 34.2396 40.6022 34.7655 40.1922 35.6917C39.5746 37.0869 35.4722 36.1711 33.1066 35.8041" stroke="white" stroke-opacity="0.9" stroke-width="2" stroke-linecap="round" stroke-linejoin="round"/>
<path d="M32.9796 35.7777C27.9376 36.7478 22.8587 36.4336 17.7725 37.2337" stroke="white" stroke-opacity="0.9" stroke-width="2" stroke-linecap="round" stroke-linejoin="round"/>
<path d="M31.6577 32.6112C32.9242 32.9827 34.0826 33.2085 35.1332 33.2886C36.709 33.4088 38.6612 33.4417 40.0489 33.1199" stroke="white" stroke-opacity="0.9" stroke-width="2" stroke-linecap="round" stroke-linejoin="round"/>
<path d="M32.4205 28.6699C35.4069 29.326 38.3934 29.5646 41.1931 28.9489" stroke="white" stroke-opacity="0.9" stroke-width="2" stroke-linecap="round" stroke-linejoin="round"/>
<path d="M32.5477 24.4744C35.5659 25.025 37.7604 25.2914 40.6211 24.4744" stroke="white" stroke-opacity="0.9" stroke-width="2" stroke-linecap="round" stroke-linejoin="round"/>
</svg>
