<svg width="176" height="39" viewBox="0 0 176 39" fill="none" xmlns="http://www.w3.org/2000/svg">
<path d="M16.5887 22.3556C15.3914 22.8629 14.2247 23.2485 13.0883 23.5123C11.9723 23.7558 10.8866 23.8775 9.83145 23.8775C7.23408 23.8775 5.21503 23.2485 3.7743 21.9904C2.35387 20.7323 1.64365 18.9364 1.64365 16.6029V9.69345H4.62657V16.268C4.62657 17.8508 5.11357 19.0683 6.08759 19.9206C7.0616 20.7729 8.42116 21.199 10.1663 21.199C11.2012 21.199 12.2563 21.0671 13.3318 20.8033C14.4276 20.5395 15.4929 20.154 16.5278 19.6467L16.5887 22.3556ZM16.0712 31V9.69345H19.0846V31H16.0712Z" fill="white"/>
<path d="M33.0876 18.8857H44.0452V21.4729H33.0876V18.8857ZM33.3615 28.3519H45.7802V31H30.3177V9.69345H45.3541V12.3415H33.3615V28.3519Z" fill="white"/>
<path d="M64.8448 31.2435C63.2215 31.2435 61.7198 30.9797 60.34 30.4521C58.9804 29.9042 57.7934 29.1433 56.7788 28.1693C55.7844 27.175 55.0032 26.0183 54.435 24.6993C53.8669 23.3804 53.5828 21.9295 53.5828 20.3467C53.5828 18.764 53.8669 17.3131 54.435 15.9941C55.0032 14.6751 55.7946 13.5286 56.8092 12.5546C57.8238 11.5603 59.0109 10.7994 60.3704 10.2718C61.7503 9.72389 63.2519 9.44995 64.8752 9.44995C66.5189 9.44995 68.0306 9.73403 69.4105 10.3022C70.8106 10.8501 71.9977 11.6719 72.9717 12.7677L70.9933 14.6853C70.1816 13.833 69.2685 13.204 68.2539 12.7981C67.2393 12.372 66.1536 12.1589 64.997 12.1589C63.7998 12.1589 62.6837 12.3618 61.6488 12.7677C60.6342 13.1735 59.7515 13.7417 59.0007 14.4722C58.2499 15.2027 57.6615 16.0753 57.2353 17.0899C56.8295 18.0842 56.6266 19.1698 56.6266 20.3467C56.6266 21.5237 56.8295 22.6194 57.2353 23.634C57.6615 24.6283 58.2499 25.4907 59.0007 26.2212C59.7515 26.9518 60.6342 27.5199 61.6488 27.9258C62.6837 28.3316 63.7998 28.5345 64.997 28.5345C66.1536 28.5345 67.2393 28.3316 68.2539 27.9258C69.2685 27.4996 70.1816 26.8503 70.9933 25.9777L72.9717 27.8953C71.9977 28.9911 70.8106 29.8231 69.4105 30.3912C68.0306 30.9594 66.5087 31.2435 64.8448 31.2435Z" fill="white"/>
<path d="M96.0876 18.8857H107.045V21.4729H96.0876V18.8857ZM96.3615 28.3519H108.78V31H93.3177V9.69345H108.354V12.3415H96.3615V28.3519Z" fill="white"/>
<path d="M117.318 31V9.69345H125.627C127.494 9.69345 129.087 9.98768 130.406 10.5761C131.725 11.1646 132.74 12.0169 133.45 13.1329C134.16 14.249 134.515 15.5781 134.515 17.1203C134.515 18.6625 134.16 19.9916 133.45 21.1077C132.74 22.2034 131.725 23.0557 130.406 23.6645C129.087 24.2529 127.494 24.5472 125.627 24.5472H118.992L120.362 23.1166V31H117.318ZM120.362 23.421L118.992 21.8991H125.536C127.484 21.8991 128.955 21.4831 129.949 20.6511C130.964 19.8191 131.471 18.6422 131.471 17.1203C131.471 15.5984 130.964 14.4215 129.949 13.5895C128.955 12.7575 127.484 12.3415 125.536 12.3415H118.992L120.362 10.8197V23.421Z" fill="white"/>
<path d="M140.735 23.908V21.3816H148.923V23.908H140.735Z" fill="white"/>
<rect x="2" width="158" height="3" fill="white"/>
<rect x="84" y="2" width="29" height="3" transform="rotate(90 84 2)" fill="white"/>
<rect x="160" y="2" width="29" height="3" transform="rotate(90 160 2)" fill="white"/>
<rect x="167" y="21" width="9" height="3" transform="rotate(-180 167 21)" fill="white"/>
<path d="M174.642 9.94727L165.977 21.1225L163.607 19.2844L170.433 9.94727L174.642 9.94727Z" fill="white"/>
<path d="M171.073 30.8511L164.003 19.6653L166.601 18.1653L175.5 30.8511L171.073 30.8511Z" fill="white"/>
</svg>
