<svg width="52" height="52" viewBox="0 0 52 52" fill="none" xmlns="http://www.w3.org/2000/svg">
<path d="M19.5718 8.57873C22.8846 8.30866 25.1526 8.10999 26.3756 7.98274C30.2081 7.58395 32.1398 7.95771 32.525 7.98274C33.3796 8.03825 34.0658 9.1281 34.2593 11.4265C34.453 13.7248 34.8152 38.9577 33.9317 42.0716C33.1767 44.7329 25.9963 44.0836 21.3943 43.772C19.8614 43.6682 18.2762 43.2514 18.04 42.0716C17.1544 37.6473 17.2742 13.186 18.04 10.198" stroke="white" stroke-linecap="round" stroke-linejoin="round"/>
<path opacity="0.503384" d="M19.3491 37.2287C23.3717 37.4226 28.1109 36.6282 31.8867 37.2287" stroke="white" stroke-linecap="round" stroke-linejoin="round"/>
<path d="M25.7385 39.7432C29.5169 39.6703 22.9753 43.3556 25.4848 39.6006" stroke="white" stroke-linecap="round" stroke-linejoin="round"/>
<path opacity="0.503384" d="M18.6255 13.6005C23.5413 13.2983 28.7178 13.1455 33.5556 13.1455" stroke="white" stroke-linecap="round" stroke-linejoin="round"/>
<path d="M27.4262 10.663C26.5743 10.6578 25.719 10.6027 24.8945 10.8277" stroke="white" stroke-linecap="round" stroke-linejoin="round"/>
</svg>
