<svg width="52" height="52" viewBox="0 0 52 52" fill="none" xmlns="http://www.w3.org/2000/svg">
<path opacity="0.470215" d="M13.9943 16.3101C15.3011 13.4073 17.9953 11.5838 20.8618 10.8671C22.5014 10.4576 23.5541 10.3866 25.2176 10.0962C27.5887 9.68202 31.8088 10.8557 33.3577 11.5924C36.4111 13.0445 37.9233 15.6683 39.1598 18.5582C40.231 21.0612 41.0624 23.809 40.8562 26.5786C40.8566 27.7853 40.5974 28.9119 40.3488 30.1001C38.7232 37.8721 31.666 41.415 27.8857 41.7918C23.962 42.1829 20.2647 41.5416 16.9176 39.2716C16.0122 38.6576 13.4154 36.4675 12.5601 34.0534C11.59 31.3152 10.4981 28.3684 11.3666 25.3247C11.7221 24.0794 11.8007 22.6694 12.8479 21.6186" stroke="white" stroke-opacity="0.9" stroke-width="2" stroke-linecap="round" stroke-linejoin="round"/>
<path d="M26.7166 10.0173C29.0774 10.1068 32.0992 10.9938 33.3576 11.5923C36.411 13.0444 37.9232 15.6682 39.1598 18.5581C39.7158 19.8573 40.2073 21.2225 40.5224 22.6224" stroke="white" stroke-opacity="0.9" stroke-width="2" stroke-linecap="round" stroke-linejoin="round"/>
<path d="M26.0933 27.4691C25.9893 24.758 25.9893 21.8482 26.0933 18.7396C26.1971 15.6309 26.3878 12.7211 26.6653 10.01" stroke="white" stroke-opacity="0.9" stroke-width="2" stroke-linecap="round" stroke-linejoin="round"/>
<path d="M26.6968 27.8592C29.401 27.0859 31.6977 26.3339 33.5868 25.6033C35.4759 24.8726 37.7725 23.8479 40.4768 22.5292" stroke="white" stroke-opacity="0.9" stroke-width="2" stroke-linecap="round" stroke-linejoin="round"/>
</svg>
