<svg width="32" height="33" viewBox="0 0 32 33" fill="none" xmlns="http://www.w3.org/2000/svg">
<path opacity="0.470215" d="M20.5285 7.63477C22.4076 8.52837 23.3381 10.143 24.0991 11.9214C24.7583 13.4617 25.2699 15.1527 25.143 16.8571C25.1433 17.5997 24.9837 18.2929 24.8308 19.0241C23.8304 23.8069 19.4875 25.9872 17.1612 26.219C14.7466 26.4597 12.4713 26.0651 10.4116 24.6681C9.85438 24.2903 8.25638 22.9425 7.73005 21.4569C7.13303 19.7719 6.4611 17.9585 6.99556 16.0854C7.21437 15.3191 7.26271 14.4514 7.90716 13.8048" stroke="#202020" stroke-width="2" stroke-linecap="round" stroke-linejoin="round"/>
<path d="M15.7527 19.9477C14.6951 18.6558 13.6148 17.2277 12.5117 15.6635C11.4085 14.0993 10.4218 12.6004 9.55143 11.1669" stroke="#202020" stroke-width="2" stroke-linecap="round" stroke-linejoin="round"/>
<path d="M16.1937 19.9147C17.2338 18.5312 18.0818 17.3094 18.7376 16.2495C19.3934 15.1895 20.1401 13.834 20.9777 12.1828" stroke="#202020" stroke-width="2" stroke-linecap="round" stroke-linejoin="round"/>
</svg>
