<svg width="52" height="52" viewBox="0 0 52 52" fill="none" xmlns="http://www.w3.org/2000/svg">
<path d="M21.9645 20.2706C22.9758 16.9428 23.8027 14.4531 24.4453 12.8012C25.4091 10.3234 27.6063 6.90957 27.6063 7.82089C27.6063 8.73221 31.1174 19.9989 31.7097 20.2706C32.302 20.5421 42.6254 20.3571 42.5089 20.8162C42.3926 21.2752 42.5344 21.3904 41.2508 22.1431C40.3951 22.6447 37.3906 24.8412 32.2373 28.7323C31.9337 28.8589 31.9646 29.2434 32.3299 29.8859C32.8779 30.8496 34.4544 36.1233 35.0233 37.7687C35.5922 39.4142 36.7532 43.8294 36.1726 44.2817C35.5922 44.7341 32.816 41.8768 32.2373 41.2389C31.6585 40.6009 27.6063 32.9927 26.5552 32.9927C25.5042 32.9927 23.154 36.3442 22.6392 36.9481C22.1243 37.5521 16.7597 43.7674 14.8361 44.0245C12.9124 44.2817 13.5336 42.7101 14.8361 40.2395C15.7044 38.5922 17.4339 34.7502 20.0248 28.7131C18.7235 28.1314 17.5695 27.6778 16.5628 27.3522C15.0528 26.8638 10.2841 25.2815 9.61748 25.0813C8.95085 24.881 11.0407 23.9801 12.5891 23.0615C14.1376 22.1431 17.5541 20.8162 19.4939 20.8162" stroke="white" stroke-opacity="0.9" stroke-width="2" stroke-linecap="round" stroke-linejoin="round"/>
</svg>
