<svg width="865" height="93" viewBox="0 0 865 93" fill="none" xmlns="http://www.w3.org/2000/svg">
<path d="M61.2946 99.6777L37.2174 54.2908L63.2319 39.0696L98.1023 99.6777H61.2946ZM0.96322 99.6777V2.8154H33.6197V99.6777H0.96322ZM24.2102 64.6689V38.9312H60.8795V64.6689H24.2102ZM66.4145 54.7059L36.3872 51.6617L64.2005 2.8154H98.2407L66.4145 54.7059ZM153.349 101.892C145.508 101.892 138.221 100.646 131.486 98.1556C124.844 95.6649 119.079 92.1594 114.189 87.6391C109.3 83.0266 105.472 77.63 102.704 71.4493C100.029 65.2685 98.6915 58.5343 98.6915 51.2466C98.6915 43.8666 100.029 37.1323 102.704 31.0439C105.472 24.8631 109.3 19.5126 114.189 14.9924C119.079 10.3799 124.844 6.82827 131.486 4.33753C138.221 1.84678 145.508 0.601406 153.349 0.601406C161.283 0.601406 168.571 1.84678 175.213 4.33753C181.855 6.82827 187.62 10.3799 192.51 14.9924C197.399 19.5126 201.181 24.8631 203.856 31.0439C206.624 37.1323 208.008 43.8666 208.008 51.2466C208.008 58.5343 206.624 65.2685 203.856 71.4493C201.181 77.63 197.399 83.0266 192.51 87.6391C187.62 92.1594 181.855 95.6649 175.213 98.1556C168.571 100.646 161.283 101.892 153.349 101.892ZM153.349 75.4622C156.394 75.4622 159.207 74.9087 161.79 73.8017C164.466 72.6947 166.772 71.1264 168.709 69.0969C170.739 66.9752 172.307 64.4383 173.414 61.4863C174.521 58.4421 175.074 55.0288 175.074 51.2466C175.074 47.4643 174.521 44.0972 173.414 41.1452C172.307 38.101 170.739 35.5641 168.709 33.5346C166.772 31.4128 164.466 29.7985 161.79 28.6915C159.207 27.5845 156.394 27.031 153.349 27.031C150.305 27.031 147.446 27.5845 144.77 28.6915C142.187 29.7985 139.881 31.4128 137.852 33.5346C135.914 35.5641 134.392 38.101 133.285 41.1452C132.178 44.0972 131.625 47.4643 131.625 51.2466C131.625 55.0288 132.178 58.4421 133.285 61.4863C134.392 64.4383 135.914 66.9752 137.852 69.0969C139.881 71.1264 142.187 72.6947 144.77 73.8017C147.446 74.9087 150.305 75.4622 153.349 75.4622ZM282.583 2.8154H315.239V99.6777H282.583V2.8154ZM252.417 99.6777H219.761V2.8154H252.417V99.6777ZM284.797 63.977H250.203V37.1323H284.797V63.977ZM354.462 99.6777V21.0809L361.519 28.138H326.095V2.8154H414.932V28.138H379.508L386.565 21.0809V99.6777H354.462ZM412.672 99.6777L455.015 2.8154H487.118L529.461 99.6777H495.697L464.425 18.3134H477.155L445.882 99.6777H412.672ZM437.857 82.796L446.159 59.2723H490.716L499.018 82.796H437.857ZM597.902 99.6777L573.825 54.2908L599.839 39.0696L634.71 99.6777H597.902ZM537.571 99.6777V2.8154H570.227V99.6777H537.571ZM560.818 64.6689V38.9312H597.487V64.6689H560.818ZM603.022 54.7059L572.995 51.6617L600.808 2.8154H634.848L603.022 54.7059ZM662.022 99.6777V21.0809L669.079 28.138H633.655V2.8154H722.491V28.138H687.067L694.125 21.0809V99.6777H662.022ZM785.428 32.566C797.236 32.566 806.461 35.2412 813.103 40.5917C819.837 45.85 823.204 53.8296 823.204 64.5305C823.204 76.0618 819.422 84.8255 811.858 90.8217C804.293 96.7257 794.1 99.6777 781.277 99.6777H733.261V2.8154H765.364V32.566H785.428ZM779.063 76.8459C782.292 76.8459 784.967 75.8312 787.089 73.8017C789.303 71.6799 790.41 68.774 790.41 65.084C790.41 61.394 789.303 58.8572 787.089 57.4734C784.967 56.0897 782.292 55.3978 779.063 55.3978H765.364V76.8459H779.063ZM832.06 99.6777V2.8154H864.163V99.6777H832.06Z" fill="black" fill-opacity="0.5"/>
</svg>
