<svg width="52" height="53" viewBox="0 0 52 53" fill="none" xmlns="http://www.w3.org/2000/svg">
<path d="M19.927 10.1901C21.8371 8.63432 25.1352 7.86191 27.6442 8.85793C35.7448 12.0732 31.3149 22.8931 23.1969 21.8189C17.725 21.0952 18.0263 11.1525 22.2816 9.46336" stroke="white" stroke-width="2.08" stroke-linecap="round" stroke-linejoin="round"/>
<path d="M19.1183 29.1616C19.038 28.7928 18.6936 27.2888 18.5753 26.933C18.1241 25.5781 17.8498 24.1858 17.609 22.7816C17.4577 21.8967 17.3273 21.0012 16.9659 20.1664C16.9518 20.1336 16.9044 20.098 16.8705 20.0959C16.8274 20.0936 16.767 20.1105 16.7401 20.1419C16.6485 20.2492 16.5473 20.3562 16.4875 20.4815C15.4432 22.6608 14.4061 24.8436 13.3642 27.0236C13.2074 27.3517 13.2347 27.6671 13.396 27.9781C13.5277 28.2305 13.6556 28.4853 13.808 28.7248C14.5447 29.8843 15.2875 31.0401 16.0316 32.1951C16.2112 32.4733 20.2262 37.2131 20.4317 37.4718" stroke="white" stroke-width="2.08" stroke-linecap="round" stroke-linejoin="round"/>
<path d="M30.3926 28.634C31.1189 24.3648 33.1833 20.0957 33.1833 20.0957" stroke="white" stroke-width="2.08" stroke-linecap="round" stroke-linejoin="round"/>
<path d="M33.1816 20.0957C33.4683 20.0873 38.6597 25.8454 38.6597 26.7616C38.6597 27.678 35.2242 33.6936 35.0738 34.1416C34.9634 34.4711 34.5959 35.7172 34.3412 35.9739" stroke="white" stroke-width="2.08" stroke-linecap="round" stroke-linejoin="round"/>
<path opacity="0.503384" d="M37.7647 43.9871C37.7179 43.9043 37.6701 43.8214 37.634 43.7339C37.5427 43.5143 37.4438 43.2963 37.3724 43.07C36.5105 40.3423 35.3164 37.7523 34.1186 35.161C33.5405 33.9112 33.0697 32.6121 32.5511 31.335C32.5152 31.247 32.4896 31.1553 32.4546 31.0667C31.7526 29.2806 32.139 29.4475 29.9946 29.4721C28.9939 29.4838 27.9942 29.6099 26.994 29.681C26.4703 29.7179 25.9466 29.7584 25.4225 29.778C23.7999 29.8387 22.1768 29.8889 20.5543 29.9463C20.3638 29.9532 20.1734 29.9759 19.9844 30.0006" stroke="white" stroke-width="1.82" stroke-linecap="round" stroke-linejoin="round"/>
<path opacity="0.503384" d="M35.2238 44.8118C33.7913 44.7346 15.2968 44.6182 14.7248 44.5913C14.3361 44.5726 14.0881 44.2586 14.1729 43.9197C14.6003 42.2089 14.9145 40.4686 15.4695 38.7912C15.8007 37.7915 17.5919 31.9046 17.8187 30.8809" stroke="white" stroke-width="1.82" stroke-linecap="round" stroke-linejoin="round"/>
<path opacity="0.503384" d="M29.7898 36.3353C29.9388 36.3649 30.0549 36.6717 29.9621 36.7923C29.6619 37.182 29.2896 37.3239 28.8485 37.202C28.621 37.1387 28.4041 37.0329 28.1739 36.988C28.0466 36.9631 27.8795 36.9901 27.7693 37.0555C27.5684 37.1739 27.3848 37.3266 27.2148 37.4857C26.8081 37.8668 26.3735 37.8324 25.904 37.6138C25.2996 37.333 24.7384 37.0082 24.2877 36.5094C24.0179 36.2106 23.5713 36.2011 23.2604 36.4494C23.0431 36.6239 22.8592 36.837 22.6572 37.0296C22.3554 37.3182 22.0568 37.6098 21.742 37.8849C21.69 37.9305 21.5407 37.9327 21.4785 37.8935" stroke="white" stroke-width="0.78" stroke-linecap="round" stroke-linejoin="round"/>
<path d="M19.9844 33.7266L20.8809 38.5199" stroke="white" stroke-width="2.08" stroke-linecap="round" stroke-linejoin="round"/>
</svg>
