<svg width="52" height="53" fill="none" xmlns="http://www.w3.org/2000/svg"><path d="M25.883 18.096c-1.767 3.835-3.394 8.115-3.846 12.335m4.047-12.236c.01 3.039.12 6.076.181 9.113.025 1.219.038 2.438.057 3.657m-.377 10.381c-.201 2.138-.56 4.255-1.006 6.355m9.222-29.506c-1.52 9.788.059 20.169-.28 29.96m.281-29.96c1.78 3.35 2.44 9.993 2.758 11.683m-21.922 9.479c-.76-9.125 17.172-8.383 13.932.798m-13.06-.292c4.286-.118 8.713.29 13.06.29m-5.441-8.996c-1.27-.434-1.778-.482-2.468.725m7.191-25.609c2.288-2.18 4.22-1.093 6.095.778 7.199 7.182-13.566 12.512-6.875-.424" stroke="#fff" stroke-width="2.08" stroke-linecap="round" stroke-linejoin="round"/></svg>