<svg width="252" height="253" fill="none" xmlns="http://www.w3.org/2000/svg"><path d="M190.969 86.311c-13.93-2.16-23.969-19.759-35.789-24.01-1.409-.506-8.977 6.009-10.406 6.958-20.428 13.554-42.513 24.25-63.051 37.696-4.587 3.003-27.668 11.915-29.34 17.328-.299.966-.355 2.351 0 2.42 5.278 1.035 10.726 5.321 15.189 8.301 2.856 1.907 28.013 21.324 30.082 19.745 21.935-16.748 69.218-49.299 94.981-65.97" stroke="#fff" stroke-opacity=".9" stroke-width="6" stroke-linecap="round" stroke-linejoin="round"/><path d="M196.756 101.567c-31.41 15.393-73.752 60.989-98.727 74.452-1.119.603-9.857-6.652-11.294-7.427-8.972-4.838-17.37-11.316-25.121-18.154" stroke="#898989" stroke-width="6" stroke-linecap="round" stroke-linejoin="round"/><path d="M199.71 116.465c-8.053-3.609-92.983 77.162-101.194 73.614-8.21-3.548-25.183-17.12-35.315-24.924" stroke="#898989" stroke-width="6" stroke-linecap="round" stroke-linejoin="round"/><path d="M118.97 98.43c19.423-23.204 35.433 22.987 2.706 18.175-6.745-.991-10.468-15.738-5.205-19.523M75.478 121.99c3.49 4.696 5.997 1.478 12.487-3.365m77.826-27.152c3.367-2.146.624-.369.624-4.487" stroke="#fff" stroke-opacity=".9" stroke-width="6" stroke-linecap="round" stroke-linejoin="round"/></svg>