<svg width="52" height="52" fill="none" xmlns="http://www.w3.org/2000/svg"><path d="M20.149 7.558c.88-.697 2.326-.968 3.478-1.043 2.558-.167 5.601 1.11 6.335 3.444 1.28 4.074-2.955 9.52-8.01 7.237-2.394-1.082-3.241-2.952-3.182-5.266m.946 7.6c-.35.142-.115.055-.458 1.048-.874 3.934.327 10.864.376 11.035m10.559.976a3.742 3.742 0 01-.593-.076 4.693 4.693 0 01-.401-.12c-.265-.066-4.927-.28-5.384-.276-.505.005-2.626.027-3.13 0-.371-.02-.7-.103-.966-.29m10.283.953c.276 7.204 0 11.595 0 12.303 0 .419 1.338.569 2.095.364m0-19.343c-.26.114-1.228-.732-1.501-.684-.295.051-.596.079-.895.11-.372.038-.74.062-1.111.016-.923-.117-3.146-.485-4.026-.781-.934-.316-4.707-3.742-4.845-3.983" stroke="#fff" stroke-width="2" stroke-linecap="round" stroke-linejoin="round"/><path opacity=".503" d="M40.693 20.29c-.224.18-3.11 5.111-3.27 5.344-.072.102-.146.202-.219.302-.129.178-.252.401-.428.534-.38.286-6.933.188-7.509 0m-15.581 6.379c.274-.246.664-.4 1.076-.425.115.004 9.805.268 10.28.362.45.09.98.203 1.337.445M22.88 45.5c-.2-.04-.373-.112-.52-.216l-.254-.143-.427-.234a8.625 8.625 0 00-1.442-.618 7.353 7.353 0 00-.95-.217 4.002 4.002 0 00-.267 0 3.66 3.66 0 00-.298.062c-.287.1-.556.22-.816.353-.325.194-.957.59-1.266.797m-2.487-14.989c-1.153-2.735-2.5-7.894-2.496-10.949m8.015 12.862l-.043 9.522" stroke="#fff" stroke-width="2" stroke-linecap="round" stroke-linejoin="round"/></svg>