<svg width="52" height="52" fill="none" xmlns="http://www.w3.org/2000/svg"><path d="M14.287 11.02c.81-.85 1.426-1.273 2.567-1.618 4.817-1.455 5.615 6.712 1.976 8.91-4.689 2.833-8.162-3.51-4.862-6.42m20.792 1.215c1.231-1.012 3.359-1.514 4.977-.866 5.226 2.09 2.368 9.127-2.869 8.429-3.53-.47-3.335-6.937-.59-8.035m-11.656 11.69c1.143-.907 3.115-1.358 4.616-.777 4.846 1.875 2.196 8.183-2.66 7.557-3.273-.422-3.093-6.22-.548-7.204M11.31 35.434c.185-.361 0-8.004 2.535-12.684.498 2.427.806 10.426.39 11.83m7.172-3.9c-.793-.907-1.892-6.618-1.972-7.41-.368 1.82-.884 8.411-.78 10.855m23.629 2.479c-1.582.25-2.627.404-3.136.461-2.638.298-3.543.281-3.82.281-.535 0 2.913-14.511 3.82-14.511.605 0 3.136 8.95 6.937 14.23" stroke="#fff" stroke-width="2" stroke-linecap="round" stroke-linejoin="round"/><path d="M14.174 34.474c-.257 1.717-.386 3.763-.386 6.14 0 2.375.129 4.617.386 6.724l-1.508.287M18.59 34.45c.39 1.296.585 3.036.585 5.22 0 2.184-.195 4.518-.585 7h1.17m1.045-16.126c.682 1.252 1.175 1.933 1.478 2.044.303.111 1.114.337 2.434.677m5.362-.31c1.245-.189 2.057-.45 2.436-.783a22.53 22.53 0 011.25-1.017m-9.017 2.412l.88 5.468-.88 6.172-2.26-3.551-1.08-.365m8.514-8.48l-1.431 6.28 1.431 5.36 2.44-3.452 1.253-.383m4.219-3.27v10.685l-1.205.199m4.521-11.337V48.23h1.206M39.04 22.835c-3.042 5.304-4.9 8.226-5.576 8.767" stroke="#fff" stroke-width="2" stroke-linecap="round" stroke-linejoin="round"/></svg>