<svg width="53" height="53" fill="none" xmlns="http://www.w3.org/2000/svg"><path d="M9.363 31.1c10.059-5.48 4.425-8.365 13.603-2.125.176.12 2.761 1.396 2.665 1.584-.146.283-14.56.964-15.433.927m18.12-1.339c2.633-.822 6.124-6.206 6.877-6.206 1.42 0 3.78 3.104 7.234 5.028.09.05 1.153.687 1.153.746 0 .349-5.148-.254-5.446-.275-2.964-.209-5.76.176-8.665.55m-8.366-3.425c10.958-9.121 1.376-11.02 11.07.56m-20.11 5.203c.065 1.846.197 3.715.302 5.535m11.807-6.375c-.055 1.94.27 5 .238 6.374m5.901-6.878c-.192 2.276.066 4.616-.13 6.877m11.941-6.373c-.124 1.904.25 3.824 0 5.703" stroke="#fff" stroke-width="2.104" stroke-linecap="round" stroke-linejoin="round"/><path opacity=".503" d="M20.962 31.824c-.013 2.121.183 4.275.097 6.374m-2.96-5.87c.045 1.955-.092 3.93 0 5.87m-2.252-5.87c.01 1.894-.08 3.87.13 5.703m17.453-7.215c-.076 2.212.098 4.918-.01 6.877m3.17-6.541c.014 2.013.01 4.027.065 6.039m2.82-6.207c-.056 1.952.143 4.606.172 6.206" stroke="#fff" stroke-width="2.104" stroke-linecap="round" stroke-linejoin="round"/><path d="M25.133 31.488c1.628-.127 3.214-.456 4.864-.504" stroke="#fff" stroke-width="2.104" stroke-linecap="round" stroke-linejoin="round"/><path opacity=".503" d="M9.91 26.287c-2.938 2.068-2.09 1.096.126 2.013m.302-1.675c-.202 1.577-.105 3.158.173 4.697m6.737-7.559c-.016 1.298 1.105-5.036.468-3.874-.317.577 2.418 1.334 1.785 1.046-.777-.354-1.428.403-1.785.775m9.594-3.305c.002-.61-.144-1.19-.164-1.799-.023-.685-.748-2.06 0-2.06.861 0 3.016.303 2.407.862-.298.274-1.61-.181-2.325.75m8.851 7.112c-.016-.785-.087-1.562-.087-2.348m.189-.168c2.777.94 2.227-.015-.146.838m7.78 5.033c-.07.846.021 1.681.065 2.516m.087-2.629c1.055.259.62.371-.217.561" stroke="#fff" stroke-width="2.104" stroke-linecap="round" stroke-linejoin="round"/></svg>