<svg width="52" height="52" fill="none" xmlns="http://www.w3.org/2000/svg"><path d="M19.828 17.524c10.873-8.103 24.391 11.14 11.82 18.853-12.05 7.392-19.27-6.56-13.305-16.968M33.69 16.3c2.35-3.399 5.777 4.357 3.436 4.861m-18.264-5.434c-1.966-3.126-6.139 3.738-4.413 5.304M28.507 13c-1.694.163-3.374 0-5.064 0m2.412 6.861c.706 12.366-1.617 9.18 3.978 5.757m-4.943-3.547c1.09-2.726.932-2.692 2.17-.37m2.05 3.559c1.328-.611 1.212-.437.823 1.102m-11.915 9.619c-.91.802-1.47 2.106-2.05 3.12m17.482-3.12c.839.934 1.388 1.934 1.807 3.12" stroke="#fff" stroke-linecap="round" stroke-linejoin="round"/></svg>