<svg width="380" height="380" fill="none" xmlns="http://www.w3.org/2000/svg"><path d="M144.9 128.06c79.453-59.214 178.239 81.408 86.37 137.773-88.055 54.02-140.816-47.944-97.228-123.995m112.155-22.725c17.171-24.835 42.215 31.84 25.109 35.527m-133.468-39.707c-14.369-22.848-44.861 27.317-32.25 38.757M208.316 95c-12.377 1.192-24.653 0-37.001 0m17.62 50.14c5.16 90.368-11.816 67.089 29.071 42.07m-36.119-25.92c7.969-19.919 6.812-19.673 15.857-2.704m14.977 26.002c9.711-4.465 8.864-3.192 6.021 8.052m-87.07 70.3c-6.649 5.86-10.738 15.386-14.977 22.8m127.741-22.8c6.135 6.82 10.148 14.128 13.214 22.8" stroke="#fff" stroke-opacity=".9" stroke-width="16.86" stroke-linecap="round" stroke-linejoin="round"/></svg>