<svg width="52" height="52" fill="none" xmlns="http://www.w3.org/2000/svg"><path d="M11.048 40.01c-.087-3.938.019-6.977.318-9.114 2.945-4.665 4.545-7.04 4.8-7.127.548-.186 3.511 6.463 3.984 6.463 5.869 0 14.352-.227 20.977-.993" stroke="#fff" stroke-width="2" stroke-linecap="round" stroke-linejoin="round"/><path d="M10.53 31.494c1.167-2.524 3.327-10.897 3.932-11.24 1.276-.725 6.87-.559 8.205-.487 1.36.073 13.598-.43 13.798-.159.842 1.143 1.458 3.504 2.037 4.848 1.204 2.79 2.273 3.7 3.098 5.717" stroke="#fff" stroke-width="2" stroke-linecap="round" stroke-linejoin="round"/><path d="M16.838 24.816c5.157-5.554 2.836-8.386 6.064-3.232 1.61 2.572 3.354 5.586 4.886 8.135m-4.494 10.449c.261-1.872.376-4.192.344-6.96 2.565-.153 3.926-.153 4.083 0 .898.873.14 5.285.263 6.737M17.77 37.767c-1.257 0-3.429.298-3.962.153-.301-.082 0-.68 0-1.02 0-.917-.408-3.08.272-3.823.39-.425 4.142-.694 4.343-.255.34.742-.046 2.722-.046 3.57m18.68 1.594c-3.215-.376-5.97 1.833-5.97-2.058 0-.512-.21-2.71.193-3.139.372-.398 6.378-.465 6.596-.154.646.921-.145 3.884-.145 5.094m2.752-7.497c-.06 2.734-.06 8.955.066 9.936M20.155 27.445c-.157-8.403 4.457.952.85.325m14.526-9.022c.103-.368.047-.798-.168-1.291h-2.08c-.283.429-.398.952-.345 1.568" stroke="#fff" stroke-width="2" stroke-linecap="round" stroke-linejoin="round"/><path opacity=".344" d="M36.498 15.407c-5.426-1.02-.837-2.674-.368-3.605.958-1.902-2.542-2.008 1.685-4.912" stroke="#fff" stroke-width="2" stroke-linecap="round" stroke-linejoin="round"/></svg>