<svg width="52" height="52" fill="none" xmlns="http://www.w3.org/2000/svg"><path opacity=".495" d="M10.727 17.525c1.192 1.076 6.405 2.7 6.877 4.045.032.09-4.555 9.714-5.153 9.814-2.503.417-5.038-1.572-7.511-2.277M45.05 16.9c-2.705.78-1.408.373-3.896 1.21-1.317.443-3.985 1.22-5.096 1.966-.454.306.191 1.034.3 1.362.538 1.63 2.066 10.96 2.548 11.041 2.502.421 5.78-1.642 8.093-2.42" stroke="#fff" stroke-width="2" stroke-linecap="round" stroke-linejoin="round"/><path d="M34.868 20.816c-2.147 0-7.61-1.423-9.516 0-1.092.815-2.915 5.642-.903 6.142 1.426.356 2.699-2.305 3.912-2.546 1.063-.212 6.544 2.842 7.224 3.745m0 .47c.03 1.79-2.203 4.294-2.593 4.678-.656.647-1.586 1.341-4.755 1.732m-9.743-5.333c1.129-.264 1.6.286 1.415 1.65-.88 1.988-3.595 1.477-2.253-.546m5.138-.358c1.057-.197 1.19.64.398 2.514-.738 1.895-2.643 1.032-2.254-.99m4.018.011c1.04 0 1.56.722 1.56 2.166-.12 1.518-2.814 2.071-2.814-.574" stroke="#fff" stroke-width="2" stroke-linecap="round" stroke-linejoin="round"/><path d="M24.015 23.017c-1.084-.006-2.289-.356-3.675-.33-1.386.024-2.221.233-3.517.467M32.89 29.9c.534.365 1.173.65 1.3.65m-2.73 1.56c.614.521 1.031.782 1.25.782m-3.33.908c.614.521 1.03.782 1.25.782" stroke="#fff" stroke-width="2" stroke-linecap="round" stroke-linejoin="round"/><path clip-rule="evenodd" d="M16.666 30.816c-1.74-.313-2.851-.47-3.33-.47-.48 0 .63.157 3.33.47z" stroke="#fff" stroke-width="2" stroke-linecap="round" stroke-linejoin="round"/></svg>