<svg width="53" height="53" fill="none" xmlns="http://www.w3.org/2000/svg"><path d="M37.25 22.008c0 1.597-.164 3.71-.164 4.865 0 1.154.164 6.936.164 8.014v3.843m-21.477-.164c.668-4.094.11-11.65.11-12.72 0-1.071-.11-3.195-.11-4.002" stroke="#fff" stroke-width="2.104" stroke-linecap="round" stroke-linejoin="round"/><path d="M40.674 25.614c.233-.022-1.896-2.098-4.648-4.416-1.359-1.144-3.13-2.808-4.519-3.918-1.803-1.442-3.55-2.598-5.242-3.47-.61 0-5.898 4.236-6.293 4.552-1.122.896-5.793 5.089-6.412 5.608-.55.462-1.083.928-1.622 1.393-.036.031-.061.066-.1.108m9.035 13.176c.076-1.27.076-2.472 0-3.607-.114-1.702-.202-3.606.141-3.606h3.57c.183 0 .183.19.183.673 0 .483.231 5.904 0 6.54m4.058-11.38c.76.05 1.503.037 2.228-.043 1.088-.12 2.262-.268 2.262.092v3.737c0 .192-.122.192-.43.192-.31 0-3.774.242-4.18 0-.407-.242-.294-2.168-.294-2.385v-.614" stroke="#fff" stroke-width="2.104" stroke-linecap="round" stroke-linejoin="round"/></svg>