<svg width="52" height="52" fill="none" xmlns="http://www.w3.org/2000/svg"><path opacity=".502" d="M9.9 24.781c1.749 0 4.777-.738 5.881 0 .294.197.12 1.142.12 1.437 0 1.587 1.129 11.064.597 11.73-.898 1.125-4.382 1.543-5.732 2.036" stroke="#fff" stroke-opacity=".9" stroke-width="2" stroke-linecap="round" stroke-linejoin="round"/><path d="M17.126 25.262c1.955-.698 3.661-.89 5.44-1.132m.316 0c.64-.164 1.073-3.415 1.593-5.822.699-3.242.445-6.142 2.733-6.04 2.607.118 1.813 9.016 4.005 8.751 2.45-.295 4.212-.823 8.33 0 4.12.824 1.301 3.058 1.301 3.2 0 .675 1.416.241 1.264 2.563-.081 1.25-.447 1.91-1.518 2.334-.405.16.858 1.588.721 2.409 0 1.262-1.119 1.637-1.119 2.202 0 .513.41 1.039 0 1.965-.617 1.395-4.72.48-7.085.112m-.127-.026c-5.042.97-10.121.656-15.207 1.456" stroke="#fff" stroke-opacity=".9" stroke-width="2" stroke-linecap="round" stroke-linejoin="round"/><path d="M31.658 32.611c1.266.372 2.425.598 3.475.678 1.576.12 3.528.153 4.916-.17M32.42 28.67c2.987.656 5.973.895 8.773.279m-8.645-4.475c3.018.551 5.212.817 8.073 0" stroke="#fff" stroke-opacity=".9" stroke-width="2" stroke-linecap="round" stroke-linejoin="round"/></svg>