<svg width="176" height="39" fill="none" xmlns="http://www.w3.org/2000/svg"><path d="M16.589 22.356a21.383 21.383 0 01-3.5 1.156 15.26 15.26 0 01-3.258.366c-2.597 0-4.616-.63-6.057-1.888-1.42-1.258-2.13-3.054-2.13-5.387v-6.91h2.983v6.575c0 1.583.487 2.8 1.46 3.653.975.852 2.334 1.278 4.08 1.278 1.034 0 2.09-.132 3.165-.396a15.468 15.468 0 003.196-1.156l.06 2.709zM16.07 31V9.693h3.014V31H16.07zm17.018-12.114h10.957v2.587H33.088v-2.587zm.273 9.466h12.42V31H30.317V9.693h15.036v2.649H33.362v16.01zm31.484 2.892c-1.623 0-3.125-.264-4.505-.792a11.047 11.047 0 01-3.561-2.283 11.026 11.026 0 01-2.344-3.47c-.568-1.319-.852-2.77-.852-4.352 0-1.583.284-3.034.852-4.353a10.44 10.44 0 012.374-3.44 10.409 10.409 0 013.561-2.282c1.38-.548 2.882-.822 4.505-.822 1.644 0 3.156.284 4.535.852a9.153 9.153 0 013.562 2.466l-1.979 1.917c-.811-.852-1.724-1.481-2.74-1.887a8.325 8.325 0 00-3.256-.64 9.087 9.087 0 00-3.348.61A8.028 8.028 0 0059 14.472a7.844 7.844 0 00-1.766 2.618c-.405.994-.608 2.08-.608 3.257s.203 2.272.608 3.287A7.923 7.923 0 0059 26.221a8.028 8.028 0 002.648 1.705c1.035.406 2.15.609 3.348.609a8.688 8.688 0 003.257-.61c1.014-.425 1.928-1.075 2.74-1.947l1.978 1.917a9.442 9.442 0 01-3.561 2.496c-1.38.568-2.902.853-4.566.853zm31.243-12.358h10.957v2.587H96.088v-2.587zm.274 9.466h12.418V31H93.318V9.693h15.036v2.649H96.362v16.01zM117.318 31V9.693h8.309c1.867 0 3.46.295 4.779.883 1.319.589 2.334 1.44 3.044 2.557.71 1.116 1.065 2.445 1.065 3.987 0 1.543-.355 2.872-1.065 3.988-.71 1.095-1.725 1.948-3.044 2.556-1.319.589-2.912.883-4.779.883h-6.635l1.37-1.43V31h-3.044zm3.044-7.579l-1.37-1.522h6.544c1.948 0 3.419-.416 4.413-1.248 1.015-.832 1.522-2.009 1.522-3.53 0-1.523-.507-2.7-1.522-3.531-.994-.832-2.465-1.248-4.413-1.248h-6.544l1.37-1.522v12.6zm20.373.487v-2.526h8.188v2.526h-8.188zM2 0h158v3H2z" fill="#fff"/><path fill="#fff" d="M84 2v29h-3V2zm76 0v29h-3V2z"/><path fill="#fff" d="M167 21h-9v-3h9z"/><path d="M174.642 9.947l-8.665 11.175-2.37-1.838 6.826-9.337h4.209z" fill="#fff"/><path d="M171.073 30.851l-7.07-11.186 2.598-1.5 8.899 12.686h-4.427z" fill="#fff"/></svg>