<svg width="52" height="52" fill="none" xmlns="http://www.w3.org/2000/svg"><path d="M19.572 8.579c3.313-.27 5.58-.469 6.804-.596 3.832-.399 5.764-.025 6.149 0 .855.055 1.54 1.145 1.734 3.444.194 2.298.556 27.53-.327 30.645-.755 2.66-7.936 2.012-12.538 1.7-1.533-.104-3.118-.52-3.354-1.7-.886-4.425-.766-28.886 0-31.874" stroke="#fff" stroke-linecap="round" stroke-linejoin="round"/><path opacity=".503" d="M19.35 37.229c4.022.194 8.76-.6 12.537 0" stroke="#fff" stroke-linecap="round" stroke-linejoin="round"/><path d="M25.738 39.743c3.779-.073-2.763 3.613-.253-.142" stroke="#fff" stroke-linecap="round" stroke-linejoin="round"/><path opacity=".503" d="M18.625 13.6a248.218 248.218 0 0114.93-.454" stroke="#fff" stroke-linecap="round" stroke-linejoin="round"/><path d="M27.426 10.663c-.852-.005-1.707-.06-2.531.165" stroke="#fff" stroke-linecap="round" stroke-linejoin="round"/></svg>