<svg width="32" height="33" fill="none" xmlns="http://www.w3.org/2000/svg"><path opacity=".47" d="M20.529 7.635c1.879.893 2.81 2.508 3.57 4.286.66 1.54 1.17 3.232 1.044 4.936 0 .743-.16 1.436-.312 2.167-1 4.783-5.343 6.963-7.67 7.195-2.414.24-4.69-.154-6.75-1.55-.557-.379-2.155-1.727-2.68-3.212-.598-1.685-1.27-3.498-.735-5.372.218-.766.267-1.634.911-2.28" stroke="#202020" stroke-width="2" stroke-linecap="round" stroke-linejoin="round"/><path d="M15.753 19.948a75.091 75.091 0 01-3.241-4.284 78.735 78.735 0 01-2.96-4.497m6.642 8.748c1.04-1.384 1.888-2.606 2.544-3.665.655-1.06 1.402-2.416 2.24-4.067" stroke="#202020" stroke-width="2" stroke-linecap="round" stroke-linejoin="round"/></svg>