<svg width="52" height="52" fill="none" xmlns="http://www.w3.org/2000/svg"><path opacity=".47" d="M13.994 16.31c1.307-2.903 4.001-4.726 6.868-5.443 1.64-.41 2.692-.48 4.356-.77 2.37-.415 6.59.759 8.14 1.495 3.053 1.452 4.565 4.076 5.802 6.966 1.071 2.503 1.902 5.251 1.696 8.02 0 1.207-.259 2.334-.507 3.522-1.626 7.772-8.683 11.315-12.463 11.692-3.924.39-7.621-.25-10.968-2.52-.906-.614-3.503-2.804-4.358-5.219-.97-2.738-2.062-5.685-1.193-8.728.355-1.246.434-2.656 1.48-3.706" stroke="#fff" stroke-opacity=".9" stroke-width="2" stroke-linecap="round" stroke-linejoin="round"/><path d="M26.717 10.017c2.36.09 5.382.977 6.64 1.575 3.054 1.452 4.566 4.076 5.803 6.966.556 1.3 1.047 2.665 1.362 4.064M26.093 27.47a122.034 122.034 0 010-8.73c.104-3.11.295-6.019.572-8.73" stroke="#fff" stroke-opacity=".9" stroke-width="2" stroke-linecap="round" stroke-linejoin="round"/><path d="M26.697 27.86c2.704-.774 5-1.526 6.89-2.257 1.889-.73 4.185-1.755 6.89-3.074" stroke="#fff" stroke-opacity=".9" stroke-width="2" stroke-linecap="round" stroke-linejoin="round"/></svg>