<svg width="52" height="52" fill="none" xmlns="http://www.w3.org/2000/svg"><path d="M25.311 8.055c3.394-4.872 9.585 2.972 5.235 6.183-3.38 2.495-7.349-1.394-5.762-4.778m3.403 9.38l.424 7.3-.424.54-.564-.36v-7.48" stroke="#fff" stroke-width="2" stroke-linecap="round" stroke-linejoin="round"/><path d="M24.88 17.967c1.638.32 5.225-.965 6.582.056 1.567 1.179 2.226 12.903 2.255 13.157m-9.293-12.035c-1.273 3.332-2.203 9.132-1.341 11.273m1.813-11.578c.256 1.257.38 5.552.16 11.578m-.238 8.684c.058 1.766-.228 4.578 0 5.588.233 1.035 1.496.828 1.891.71" stroke="#fff" stroke-width="2" stroke-linecap="round" stroke-linejoin="round"/><path d="M30.98 17.926c.207 1.671-.997 27.078-.728 27.364.13.138 1.246-.01 1.484-.06" stroke="#fff" stroke-width="2" stroke-linecap="round" stroke-linejoin="round"/><path clip-rule="evenodd" d="M19.821 31.742c-1.138.221-1.286 1.149-1.35 1.638-.123.954-.244 3.646 0 4.095.244.448 1.236.77 2.677.77 1.442 0 4.32.177 5.214 0 .895-.176 1.85-5.903.855-6.295-1.206-.33-6.259-.429-7.396-.208z" stroke="#fff" stroke-width="2" stroke-linecap="round" stroke-linejoin="round"/><path d="M27.698 32.398c.357 2.182.534 3.53.534 4.043 0 .77-.102 1.663-.665 1.771-.233.045-.689.045-1.366 0m-1.281-7.03c.065-.495-.129-.742-.583-.742-.68 0-1.37-.117-1.593.191-.15.206-.224.476-.224.81" stroke="#fff" stroke-width="2" stroke-linecap="round" stroke-linejoin="round"/></svg>