<svg width="52" height="52" fill="none" xmlns="http://www.w3.org/2000/svg"><path d="M25.505 11.18a60.657 60.657 0 00-.17 1.802c-.092 1.125-.354 2.443-.354 10.63 0 5.458.118 11.194.355 17.208" stroke="#fff" stroke-width="2" stroke-linecap="round" stroke-linejoin="round"/><path d="M15.558 12.168c4.753 1.558 8.055 2.62 9.905 3.183 6.383 1.943 10.07 3.857 11.299 4.156" stroke="#fff" stroke-width="2" stroke-linecap="round" stroke-linejoin="round"/><path opacity=".502" d="M39.902 26.691l-3.41-7.184c-1.216 2.766-1.981 4.435-2.295 5.008-.315.572-.682 1.538-1.1 2.896M15.558 12.31l3.141 9.88m-3.141-10.022l-3.665 9.88" stroke="#fff" stroke-width="2" stroke-linecap="round" stroke-linejoin="round"/><path d="M11.462 22.424l7.067-.376c.27 3.25-1.022 5.16-3.371 5.262-2.349.102-2.872-.745-3.696-2.298m20.98 3.388c.706 2.822 2.014 4.234 3.924 4.234 2.866 0 4.191-3.721 4.191-4.068m-8.115-.449l8.115-.282M19.091 40.82h2.36c.865 0 4.266-.056 10.206-.167" stroke="#fff" stroke-width="2" stroke-linecap="round" stroke-linejoin="round"/></svg>