<svg width="52" height="52" fill="none" xmlns="http://www.w3.org/2000/svg"><path d="M21.965 20.27c1.01-3.327 1.838-5.817 2.48-7.469.964-2.478 3.161-5.891 3.161-4.98 0 .911 3.511 12.178 4.104 12.45.592.271 10.915.086 10.799.545-.116.46.025.574-1.258 1.327-.856.502-3.86 2.698-9.014 6.59-.303.126-.272.51.093 1.153.548.964 2.124 6.237 2.693 7.883.57 1.645 1.73 6.06 1.15 6.513-.58.452-3.357-2.405-3.936-3.043-.579-.638-4.63-8.246-5.682-8.246-1.05 0-3.401 3.351-3.916 3.955-.515.604-5.88 6.82-7.803 7.077-1.924.257-1.302-1.315 0-3.785.868-1.648 2.598-5.49 5.189-11.527-1.301-.582-2.455-1.035-3.462-1.36-1.51-.49-6.279-2.072-6.946-2.272-.666-.2 1.424-1.1 2.972-2.02 1.549-.918 4.965-2.245 6.905-2.245" stroke="#fff" stroke-opacity=".9" stroke-width="2" stroke-linecap="round" stroke-linejoin="round"/></svg>