<svg width="865" height="93" fill="none" xmlns="http://www.w3.org/2000/svg"><path d="M61.295 99.678L37.217 54.29l26.015-15.22 34.87 60.608H61.295zm-60.332 0V2.815H33.62v96.863H.963zm23.247-35.01V38.932h36.67V64.67H24.21zm42.205-9.962l-30.028-3.044L64.201 2.815h34.04l-31.826 51.89zm86.934 47.186c-7.841 0-15.128-1.246-21.863-3.736-6.642-2.491-12.407-5.997-17.297-10.517-4.889-4.612-8.717-10.009-11.485-16.19-2.675-6.18-4.012-12.915-4.012-20.202 0-7.38 1.337-14.115 4.012-20.203 2.768-6.18 6.596-11.531 11.485-16.052 4.89-4.612 10.655-8.164 17.297-10.654C138.221 1.847 145.508.6 153.349.6c7.934 0 15.222 1.246 21.864 3.737 6.642 2.49 12.407 6.042 17.297 10.654 4.889 4.52 8.671 9.871 11.346 16.052 2.768 6.088 4.152 12.823 4.152 20.203 0 7.287-1.384 14.022-4.152 20.202a48.528 48.528 0 01-11.346 16.19c-4.89 4.52-10.655 8.026-17.297 10.517-6.642 2.49-13.93 3.736-21.864 3.736zm0-26.43c3.045 0 5.858-.553 8.441-1.66 2.676-1.107 4.982-2.676 6.919-4.705 2.03-2.122 3.598-4.659 4.705-7.61 1.107-3.045 1.66-6.458 1.66-10.24 0-3.783-.553-7.15-1.66-10.102-1.107-3.044-2.675-5.58-4.705-7.61a19.178 19.178 0 00-6.919-4.843c-2.583-1.108-5.396-1.661-8.441-1.661-3.044 0-5.903.553-8.579 1.66-2.583 1.108-4.889 2.722-6.918 4.844-1.938 2.03-3.46 4.566-4.567 7.61-1.107 2.952-1.66 6.32-1.66 10.102s.553 7.195 1.66 10.24c1.107 2.951 2.629 5.488 4.567 7.61a21.917 21.917 0 006.918 4.705c2.676 1.107 5.535 1.66 8.579 1.66zM282.583 2.815h32.656v96.863h-32.656V2.815zm-30.166 96.863h-32.656V2.815h32.656v96.863zm32.38-35.701h-34.594V37.132h34.594v26.845zm69.665 35.7V21.082l7.057 7.057h-35.424V2.815h88.837v25.323h-35.424l7.057-7.057v78.597h-32.103zm58.21 0l42.343-96.862h32.103l42.343 96.863h-33.764l-31.272-81.365h12.73l-31.273 81.365h-33.21zm25.185-16.881l8.302-23.524h44.557l8.302 23.524h-61.161zm160.045 16.882L573.825 54.29l26.014-15.221 34.871 60.608h-36.808zm-60.331 0V2.815h32.656v96.863h-32.656zm23.247-35.01V38.932h36.669V64.67h-36.669zm42.204-9.962l-30.027-3.044 27.813-48.847h34.04l-31.826 51.89zm59 44.972V21.08l7.057 7.057h-35.424V2.815h88.836v25.323h-35.424l7.058-7.057v78.597h-32.103zm123.406-67.112c11.808 0 21.033 2.675 27.675 8.026 6.734 5.258 10.101 13.238 10.101 23.939 0 11.53-3.782 20.294-11.346 26.29-7.565 5.905-17.758 8.857-30.581 8.857h-48.016V2.815h32.103v29.751h20.064zm-6.365 44.28c3.229 0 5.904-1.015 8.026-3.044 2.214-2.122 3.321-5.028 3.321-8.718 0-3.69-1.107-6.227-3.321-7.61-2.122-1.384-4.797-2.076-8.026-2.076h-13.699v21.448h13.699zm52.997 22.832V2.815h32.103v96.863H832.06z" fill="#000" fill-opacity=".5"/></svg>