<svg width="52" height="53" fill="none" xmlns="http://www.w3.org/2000/svg"><path d="M19.927 10.19c1.91-1.556 5.208-2.328 7.717-1.332 8.1 3.215 3.67 14.035-4.447 12.96-5.472-.723-5.17-10.666-.915-12.355m-3.164 19.699c-.08-.37-.424-1.873-.543-2.229-.45-1.355-.725-2.747-.966-4.151-.151-.885-.282-1.78-.643-2.616-.014-.032-.062-.068-.096-.07-.043-.002-.103.014-.13.046-.091.107-.193.214-.252.34-1.045 2.179-2.082 4.362-3.124 6.542-.157.328-.13.643.032.954.132.252.26.507.412.747a659.07 659.07 0 002.224 3.47c.18.278 4.194 5.018 4.4 5.277m9.961-8.838c.726-4.27 2.79-8.538 2.79-8.538" stroke="#fff" stroke-width="2.08" stroke-linecap="round" stroke-linejoin="round"/><path d="M33.182 20.096c.286-.009 5.478 5.75 5.478 6.666 0 .916-3.436 6.932-3.586 7.38-.11.33-.478 1.575-.733 1.832" stroke="#fff" stroke-width="2.08" stroke-linecap="round" stroke-linejoin="round"/><path opacity=".503" d="M37.765 43.987c-.047-.083-.095-.166-.131-.253-.091-.22-.19-.438-.262-.664-.861-2.728-2.056-5.318-3.253-7.909-.578-1.25-1.05-2.549-1.568-3.826-.036-.088-.061-.18-.096-.268-.702-1.786-.316-1.62-2.46-1.595-1.001.012-2 .138-3.001.209-.524.037-1.047.077-1.572.097-1.622.06-3.245.11-4.868.168-.19.007-.38.03-.57.055m15.24 14.811c-1.433-.077-19.927-.194-20.5-.22-.388-.02-.636-.333-.551-.672.427-1.711.742-3.451 1.296-5.129.332-1 2.123-6.886 2.35-7.91" stroke="#fff" stroke-width="1.82" stroke-linecap="round" stroke-linejoin="round"/><path opacity=".503" d="M29.79 36.335c.149.03.265.337.172.457-.3.39-.672.532-1.113.41-.228-.063-.445-.17-.675-.214a.628.628 0 00-.405.068c-.2.118-.384.27-.554.43-.407.38-.841.346-1.311.128-.604-.281-1.166-.606-1.616-1.105-.27-.298-.717-.308-1.028-.06-.217.175-.4.388-.603.58-.302.29-.6.58-.915.856-.052.046-.201.048-.264.009" stroke="#fff" stroke-width=".78" stroke-linecap="round" stroke-linejoin="round"/><path d="M19.984 33.727l.897 4.793" stroke="#fff" stroke-width="2.08" stroke-linecap="round" stroke-linejoin="round"/></svg>